<?xml version="1.0" encoding="UTF-8"?>
<!DOCTYPE svg PUBLIC "-//W3C//DTD SVG 1.1//EN" "http://www.w3.org/Graphics/SVG/1.1/DTD/svg11.dtd">

<svg xmlns="http://www.w3.org/2000/svg" xml:space="preserve" width="50" height="50" version="1.1" style="shape-rendering:geometricPrecision; text-rendering:geometricPrecision; image-rendering:optimizeQuality; fill-rule:evenodd; clip-rule:evenodd"
viewBox="0 0 1064 1064"
 xmlns:xlink="http://www.w3.org/1999/xlink">
 <defs>
  <style type="text/css">
   <![CDATA[
    .str0 {stroke:#FFFFFF;stroke-width:65.5416}
    .fil0 {fill:none}
   ]]>
  </style>
 </defs>
 <g id="Camada_x0020_1">
  <metadata id="CorelCorpID_0Corel-Layer"/>
  <rect class="fil0" width="1064" height="1064"/>
  <path class="fil0 str0" d="M684 487c0,-113 0,-169 0,-169 -41,-83 -96,-107 -156,-112m-146 281c0,-113 0,-169 0,-169 40,-83 96,-107 155,-112m-10 189c129,0 227,0 293,0 0,262 0,393 0,393 -12,41 -45,64 -98,69 -130,0 -195,0 -195,0m9 -462c-129,0 -226,0 -293,0 0,262 0,393 0,393 13,41 45,64 98,69 130,0 195,0 195,0"/>
 </g>
</svg>
